# xmcd
#
# Track frame offsets:
#   150
#   24125
#   42407
#   59840
#   80172
#   95217
#   114025
#   133312
#   155095
#   176417
#
# Disc length: 2664 seconds
#
# Revision: 0
# Processed by: cddbd v1.5.1PL0 Copyright (c) Steve Scherf et al.
# Submitted via: CD-Datenbank 4.*
#
DISCID=890a660a
DTITLE=Cheryl Lynn - Preppie
DYEAR=1983
DGENRE=R and B
TTITLE0=Encore
TTITLE1=Fix It
TTITLE2=Fool A Fool
TTITLE3=This Time
TTITLE4=Change The Channel
TTITLE5=Preppie
TTITLE6=Love Rush
TTITLE7=No One Else Will Do
TTITLE8=Free
TTITLE9=Life´s Too Short
EXTD=
EXTT0=
EXTT1=
EXTT2=
EXTT3=
EXTT4=
EXTT5=
EXTT6=
EXTT7=
EXTT8=
EXTT9=
PLAYORDER=
